# xmcd CD database file
#
# Track frame offsets:
#	180
#	7238
#	31012
#	57739
#	83604
#	108203
#	132325
#	156075
#	181820
#	204396
#	226782
#
# Disc length: 3382 seconds
#
# Revision: 0
# Processed by: cddbd v1.5.2PL0 Copyright (c) Steve Scherf et al.
# Submitted via: CDex 1.51
#
DISCID=820d340b
DTITLE=Jody Fisher - Stand Alone Tracks - Jazz
DYEAR=1994
DGENRE=Jazz
TTITLE0=Tuning
TTITLE1=Tune Me
TTITLE2=A New Blue
TTITLE3=In the Fall
TTITLE4=Feets
TTITLE5=Birdy
TTITLE6=Night Walker
TTITLE7=Greenish Blue
TTITLE8=Tape Me
TTITLE9=Things Change
TTITLE10=Shake Me
EXTD=YEAR: 1994
EXTT0=
EXTT1=
EXTT2=
EXTT3=
EXTT4=
EXTT5=
EXTT6=
EXTT7=
EXTT8=
EXTT9=
EXTT10=
PLAYORDER=
